<?xml version="1.0" standalone="no"?>
<!DOCTYPE svg PUBLIC "-//W3C//DTD SVG 20010904//EN"
 "http://www.w3.org/TR/2001/REC-SVG-20010904/DTD/svg10.dtd">
<svg version="1.0" xmlns="http://www.w3.org/2000/svg"
 width="2316.000000pt" height="2316.000000pt" viewBox="0 0 2316.000000 2316.000000"
 preserveAspectRatio="xMidYMid meet">
<metadata>
Created by potrace 1.14, written by Peter Selinger 2001-2017
</metadata>
<g transform="translate(0.000000,2316.000000) scale(0.100000,-0.100000)"
fill="#000000" stroke="none">
<path d="M11158 23135 c-2 -2 -77 -6 -168 -9 -168 -6 -201 -9 -222 -22 -6 -4
-8 -3 -5 2 3 6 -4 11 -16 11 -17 2 -19 0 -7 -8 11 -7 6 -9 -20 -8 -31 2 -83
-2 -270 -16 -178 -14 -216 -18 -225 -25 -5 -4 -41 -11 -80 -14 -102 -10 -145
-15 -190 -20 -78 -10 -160 -19 -172 -19 -7 0 -10 -4 -7 -9 3 -4 -7 -8 -23 -9
-15 0 -35 -2 -43 -4 -8 -1 -55 -8 -104 -14 -113 -15 -110 -15 -116 -23 -3 -4
-23 -9 -45 -12 -58 -7 -126 -17 -155 -22 -14 -2 -43 -7 -65 -11 -22 -3 -42 -9
-45 -14 -3 -4 -25 -10 -50 -14 -25 -3 -76 -13 -115 -22 -38 -8 -78 -15 -87
-15 -10 1 -18 -3 -18 -7 0 -5 -21 -12 -47 -16 -27 -5 -55 -10 -63 -12 -8 -2
-32 -6 -52 -10 -21 -3 -38 -9 -38 -13 0 -4 -49 -17 -110 -30 -60 -12 -110 -26
-110 -31 0 -5 -7 -9 -16 -9 -27 0 -154 -33 -154 -40 0 -4 -6 -7 -12 -7 -20 -1
-171 -42 -193 -52 -38 -17 -80 -30 -117 -37 -21 -3 -38 -9 -38 -13 0 -4 -40
-18 -90 -31 -49 -13 -90 -27 -90 -31 0 -3 -29 -14 -65 -24 -36 -9 -65 -21 -65
-26 0 -5 -6 -9 -13 -9 -24 0 -147 -42 -147 -49 0 -4 -24 -13 -53 -20 -29 -6
-79 -25 -112 -41 -33 -17 -68 -30 -77 -30 -9 0 -23 -6 -30 -13 -7 -7 -45 -23
-85 -35 -39 -13 -73 -28 -75 -33 -2 -6 -10 -11 -18 -13 -35 -6 -100 -30 -95
-34 3 -3 -19 -14 -48 -24 -28 -10 -58 -20 -65 -23 -7 -2 -15 -4 -18 -4 -4 0
-10 -4 -14 -10 -3 -6 -31 -20 -61 -31 -30 -10 -47 -20 -39 -20 14 -1 -62 -32
-117 -48 -13 -4 -24 -11 -25 -17 -1 -5 -20 -16 -42 -24 -23 -7 -48 -20 -58
-28 -9 -8 -22 -16 -30 -17 -7 -1 -23 -7 -34 -14 -12 -6 -24 -9 -27 -5 -4 3 -9
-1 -13 -10 -3 -8 -27 -23 -54 -33 -27 -10 -47 -20 -45 -24 2 -3 -25 -17 -60
-30 -35 -13 -62 -27 -59 -31 2 -4 -21 -17 -51 -29 -32 -13 -52 -27 -48 -33 3
-5 2 -8 -3 -5 -5 3 -36 -10 -69 -29 -33 -19 -77 -41 -97 -50 -21 -9 -38 -19
-38 -23 0 -4 -19 -16 -42 -26 -24 -10 -51 -27 -60 -36 -10 -10 -23 -18 -29
-18 -6 0 -29 -13 -52 -29 -23 -15 -52 -31 -64 -35 -13 -4 -23 -11 -23 -16 0
-4 -21 -18 -47 -31 -27 -13 -54 -31 -61 -41 -7 -10 -22 -18 -32 -18 -10 0 -26
-10 -34 -22 -9 -12 -16 -19 -16 -15 0 5 -13 -1 -29 -12 -16 -12 -34 -21 -40
-21 -6 0 -11 -4 -11 -9 0 -5 -20 -19 -45 -31 -25 -12 -42 -26 -39 -31 3 -5 2
-9 -3 -7 -13 3 -83 -35 -78 -43 4 -6 -19 -21 -37 -23 -4 -1 -13 -7 -19 -13 -7
-7 -19 -13 -27 -13 -7 0 -11 -4 -8 -9 3 -4 -11 -17 -31 -27 -21 -10 -46 -29
-58 -40 -11 -12 -24 -22 -28 -22 -11 0 -54 -31 -83 -58 -13 -12 -25 -20 -27
-18 -2 2 -12 -5 -22 -16 -10 -11 -24 -20 -32 -20 -7 0 -16 -7 -19 -15 -4 -8
-21 -22 -40 -31 -19 -9 -32 -19 -30 -23 3 -4 -8 -12 -24 -19 -15 -7 -39 -23
-52 -35 -12 -13 -36 -31 -51 -41 -30 -18 -42 -28 -95 -76 -18 -17 -36 -30 -40
-30 -7 0 -51 -36 -103 -85 -14 -14 -30 -25 -36 -25 -5 0 -19 -10 -30 -22 -11
-13 -38 -36 -59 -53 -20 -16 -56 -47 -78 -67 -23 -21 -47 -38 -55 -38 -8 0
-12 -3 -8 -6 7 -8 -46 -54 -63 -54 -6 0 -9 -4 -6 -9 3 -5 -5 -16 -18 -24 -12
-9 -36 -28 -53 -44 -54 -51 -106 -93 -115 -93 -5 0 -7 -4 -3 -9 3 -5 -8 -18
-24 -27 -17 -10 -28 -21 -26 -25 3 -4 -2 -12 -10 -19 -8 -7 -15 -9 -15 -5 0 4
-30 -22 -66 -59 -36 -36 -69 -66 -75 -66 -5 0 -9 -6 -9 -13 0 -8 -11 -20 -25
-27 -13 -7 -27 -21 -30 -30 -3 -9 -17 -22 -30 -28 -14 -6 -25 -16 -25 -21 0
-5 -16 -25 -35 -44 -19 -19 -35 -33 -35 -30 0 8 -27 -22 -39 -45 -7 -12 -15
-20 -20 -18 -4 3 -14 -4 -22 -16 -8 -11 -52 -58 -98 -104 -46 -46 -80 -84 -76
-84 4 0 2 -7 -5 -15 -7 -8 -16 -12 -21 -10 -4 3 -13 -4 -20 -16 -6 -13 -35
-46 -64 -75 -29 -29 -51 -55 -48 -57 2 -3 -7 -13 -20 -23 -13 -11 -31 -31 -41
-46 -10 -16 -25 -28 -32 -28 -8 0 -13 -3 -12 -8 2 -4 -7 -20 -19 -36 -13 -16
-23 -25 -23 -20 0 5 -9 -5 -19 -22 -19 -30 -47 -65 -96 -114 -14 -14 -25 -29
-25 -34 0 -4 -12 -20 -27 -36 -16 -15 -39 -42 -53 -60 -14 -18 -33 -42 -43
-52 -10 -10 -25 -31 -35 -46 -9 -15 -25 -37 -34 -47 -66 -74 -78 -89 -78 -95
0 -3 -8 -15 -17 -26 -31 -34 -63 -83 -63 -94 0 -6 -4 -9 -9 -6 -5 3 -16 -9
-24 -27 -9 -17 -25 -38 -37 -45 -11 -7 -18 -16 -15 -21 2 -5 -2 -14 -10 -21
-8 -7 -15 -16 -15 -21 0 -4 -11 -20 -25 -35 -14 -15 -25 -33 -25 -41 0 -8 -4
-12 -9 -9 -5 3 -19 -14 -32 -39 -13 -24 -25 -42 -28 -40 -2 3 -13 -12 -24 -33
-11 -20 -23 -39 -27 -42 -4 -3 -41 -57 -83 -120 -42 -63 -83 -123 -91 -132 -9
-10 -13 -18 -10 -18 3 0 -4 -13 -15 -29 -12 -16 -21 -34 -21 -39 0 -5 -7 -12
-15 -16 -8 -3 -15 -12 -15 -21 0 -8 -8 -23 -18 -33 -10 -10 -29 -39 -41 -64
-12 -26 -29 -52 -37 -58 -7 -7 -14 -18 -14 -24 0 -7 -8 -21 -18 -32 -10 -10
-29 -43 -42 -71 -13 -29 -26 -51 -29 -48 -6 7 -36 -58 -40 -86 0 -5 -5 -8 -10
-5 -7 5 -20 -12 -25 -34 -1 -3 -7 -15 -14 -27 -7 -13 -10 -23 -6 -23 4 0 -5
-12 -19 -26 -15 -15 -24 -30 -21 -35 2 -4 -3 -16 -13 -26 -18 -18 -44 -67 -49
-90 -1 -7 -11 -24 -21 -37 -11 -13 -28 -45 -37 -70 -10 -25 -22 -46 -27 -46
-5 0 -8 -3 -7 -7 2 -11 -34 -85 -49 -101 -7 -7 -13 -18 -13 -24 0 -12 -31 -81
-40 -88 -4 -3 -14 -25 -24 -50 -10 -25 -21 -47 -24 -50 -9 -7 -54 -111 -55
-127 0 -7 -4 -10 -8 -7 -8 4 -45 -95 -41 -109 1 -5 -2 -6 -7 -3 -5 4 -15 -11
-22 -31 -6 -21 -27 -70 -45 -110 -19 -40 -34 -79 -34 -88 0 -8 -4 -15 -9 -15
-5 0 -20 -33 -32 -72 -13 -40 -29 -79 -36 -86 -7 -7 -14 -18 -14 -23 -1 -5 -3
-12 -4 -16 -1 -5 -6 -23 -10 -40 -4 -18 -11 -31 -14 -28 -4 2 -18 -30 -30 -70
-12 -41 -28 -75 -34 -75 -8 0 -7 -3 2 -9 8 -5 9 -10 2 -12 -6 -2 -21 -38 -33
-79 -12 -41 -25 -77 -28 -80 -4 -3 -15 -32 -25 -65 -10 -33 -22 -62 -25 -65
-4 -3 -17 -44 -30 -92 -13 -49 -26 -88 -30 -88 -3 0 -15 -35 -25 -77 -10 -43
-22 -80 -25 -83 -10 -8 -49 -149 -52 -187 -1 -7 -5 -13 -9 -13 -4 0 -13 -26
-19 -57 -7 -32 -18 -71 -25 -88 -8 -16 -21 -64 -30 -105 -23 -112 -31 -146
-41 -161 -4 -8 -9 -20 -10 -29 -1 -8 -4 -28 -8 -45 -3 -16 -9 -46 -12 -65 -3
-19 -9 -37 -14 -40 -6 -4 -20 -72 -47 -235 -3 -16 -8 -34 -13 -40 -4 -5 -11
-30 -14 -55 -3 -25 -8 -55 -10 -66 -6 -30 -14 -81 -22 -139 -3 -27 -10 -55
-14 -60 -5 -6 -12 -35 -16 -65 -4 -30 -8 -62 -9 -70 -2 -8 -6 -45 -10 -82 -4
-37 -11 -65 -16 -62 -5 3 -10 -12 -10 -33 -1 -21 -3 -47 -4 -58 -3 -23 -11
-95 -21 -180 -4 -33 -8 -69 -10 -80 -1 -11 -3 -40 -3 -65 -1 -33 -4 -41 -11
-30 -5 8 -10 10 -10 5 0 -6 6 -17 12 -24 10 -11 10 -13 1 -7 -9 5 -13 -4 -14
-31 -1 -21 -2 -49 -4 -63 -1 -14 -6 -74 -10 -133 -4 -60 -8 -116 -10 -125 -2
-9 -4 -45 -4 -80 -1 -39 -5 -61 -11 -57 -5 3 -10 1 -10 -4 0 -6 6 -11 13 -11
8 0 7 -4 -3 -10 -10 -6 -11 -10 -2 -10 6 0 12 -5 12 -11 0 -5 -4 -7 -10 -4 -6
4 -10 -18 -11 -57 0 -35 -3 -119 -6 -188 -16 -327 -3 -1290 18 -1316 5 -6 4
-16 -4 -24 -9 -10 -9 -11 1 -6 7 5 12 1 12 -9 0 -10 -5 -13 -12 -9 -10 6 -10
5 -2 -7 7 -8 15 -57 18 -109 4 -52 8 -117 11 -145 2 -27 7 -90 10 -140 4 -49
10 -92 14 -95 7 -6 8 -7 15 -95 4 -38 9 -92 12 -120 4 -27 7 -61 9 -75 13
-130 19 -167 26 -176 5 -6 11 -29 13 -50 2 -21 7 -59 10 -84 10 -62 15 -102
15 -123 1 -12 5 -16 14 -11 7 5 6 0 -3 -11 -8 -10 -10 -16 -4 -12 7 4 15 -26
23 -86 7 -51 15 -101 18 -112 2 -11 7 -39 10 -62 3 -24 9 -40 14 -37 5 3 10
-7 10 -23 2 -33 3 -43 25 -153 9 -47 16 -90 17 -97 0 -7 4 -10 8 -8 4 3 10
-17 15 -43 4 -26 8 -49 9 -52 7 -26 18 -97 17 -103 -2 -5 2 -6 7 -3 4 3 12
-13 16 -37 4 -23 9 -46 10 -52 1 -5 8 -37 15 -70 7 -33 16 -62 21 -65 5 -3 10
-15 12 -25 17 -89 31 -145 37 -145 4 0 10 -12 13 -27 14 -70 45 -186 47 -173
1 13 20 -49 36 -120 3 -13 9 -27 13 -30 4 -3 18 -44 31 -92 12 -48 26 -86 30
-83 4 2 7 -1 7 -8 0 -18 36 -131 43 -137 3 -3 17 -42 31 -87 13 -44 27 -79 31
-77 5 3 9 -2 9 -10 3 -36 40 -146 49 -146 7 0 36 -88 33 -100 -1 -3 4 -12 12
-20 11 -13 44 -82 44 -95 1 -19 14 -55 20 -55 4 0 16 -27 27 -59 10 -33 21
-58 23 -55 5 5 39 -77 46 -110 3 -11 8 -22 13 -25 4 -3 15 -22 22 -41 15 -35
16 -40 19 -61 0 -5 5 -7 11 -4 5 3 12 -7 16 -22 4 -15 10 -32 14 -38 4 -5 11
-25 15 -43 4 -18 10 -31 13 -28 7 7 36 -54 33 -69 -1 -5 4 -14 11 -20 13 -9
43 -70 43 -87 0 -4 7 -16 16 -26 9 -10 24 -40 34 -65 10 -26 21 -47 24 -47 8
0 41 -71 41 -87 0 -5 9 -18 20 -28 10 -9 19 -20 18 -24 -2 -15 36 -90 43 -85
5 3 10 0 10 -5 3 -20 5 -26 19 -51 7 -14 13 -26 12 -27 -1 -2 1 -3 5 -2 7 1
52 -90 52 -107 1 -7 7 -14 15 -17 8 -3 19 -22 26 -42 7 -20 15 -34 18 -30 3 3
15 -18 27 -46 12 -27 25 -50 29 -49 5 1 19 -21 32 -47 27 -53 68 -122 81 -138
5 -5 18 -26 29 -45 10 -19 27 -43 36 -54 10 -11 18 -25 18 -32 0 -7 8 -20 17
-30 21 -20 38 -48 54 -86 6 -16 14 -26 19 -23 4 3 13 -9 20 -25 7 -17 18 -34
25 -38 6 -4 22 -28 34 -55 13 -26 27 -45 32 -41 5 3 9 1 9 -3 0 -12 86 -143
112 -170 12 -13 17 -23 12 -23 -5 -1 2 -11 16 -23 14 -12 34 -39 45 -59 10
-21 21 -35 23 -33 3 3 17 -15 32 -38 14 -23 34 -48 43 -56 9 -7 14 -17 12 -22
-3 -4 6 -16 20 -25 14 -9 25 -21 25 -27 0 -5 17 -31 38 -56 20 -25 36 -47 35
-48 -1 -1 10 -16 25 -32 15 -16 38 -43 52 -60 14 -17 36 -45 50 -61 14 -17 35
-42 48 -56 12 -14 30 -37 40 -52 9 -15 27 -35 39 -45 13 -10 23 -23 23 -28 0
-5 21 -32 47 -60 95 -102 103 -111 103 -115 0 -2 22 -27 49 -54 27 -28 48 -50
45 -50 -2 0 5 -10 17 -22 57 -62 84 -88 91 -88 4 0 8 -7 8 -15 0 -8 5 -15 10
-15 6 0 15 -12 20 -26 6 -14 14 -23 18 -20 5 3 15 -4 23 -16 19 -27 407 -417
440 -443 14 -11 27 -23 28 -27 0 -5 4 -9 9 -10 4 -2 40 -35 81 -75 41 -40 76
-71 78 -69 2 1 30 -24 63 -56 33 -32 65 -58 71 -58 5 0 7 -4 4 -10 -3 -5 -2
-10 3 -10 8 0 36 -23 114 -95 15 -14 29 -25 33 -25 3 0 18 -12 33 -28 16 -15
45 -40 66 -57 21 -16 44 -36 52 -43 8 -7 14 -10 14 -6 0 4 9 -5 21 -20 11 -14
24 -26 29 -26 5 0 22 -12 38 -27 17 -16 42 -37 57 -48 15 -11 37 -29 49 -40
34 -31 84 -65 96 -65 6 0 9 -4 6 -8 -3 -5 7 -15 22 -23 15 -7 35 -22 44 -34 9
-11 21 -20 25 -20 5 0 29 -17 54 -37 25 -21 50 -38 55 -38 5 0 15 -9 22 -20 7
-11 18 -20 25 -20 7 0 24 -10 37 -22 27 -26 56 -44 83 -54 9 -3 17 -10 17 -15
0 -5 16 -17 35 -26 19 -9 32 -20 29 -24 -2 -4 6 -11 18 -15 12 -4 46 -24 74
-45 28 -22 56 -39 61 -39 6 0 13 -7 17 -15 3 -8 12 -15 19 -15 8 0 25 -10 39
-22 13 -13 37 -30 54 -38 16 -8 41 -25 56 -38 14 -13 30 -24 35 -25 17 -1 63
-24 58 -29 -3 -2 13 -13 35 -23 22 -10 40 -21 40 -25 0 -3 21 -17 48 -30 26
-13 52 -28 57 -32 28 -23 95 -63 133 -80 23 -10 42 -22 42 -26 0 -4 25 -19 55
-32 30 -13 55 -27 55 -30 0 -3 20 -14 45 -25 25 -11 45 -23 45 -26 0 -3 25
-17 55 -30 30 -13 55 -27 55 -30 0 -4 19 -14 42 -24 24 -9 45 -20 48 -24 7
-10 195 -101 210 -101 6 0 9 -4 6 -8 -2 -4 23 -19 57 -32 34 -13 69 -29 77
-36 8 -6 32 -17 52 -25 20 -7 35 -16 32 -21 -3 -4 1 -8 9 -8 22 0 117 -42 117
-51 0 -5 8 -9 18 -9 10 0 22 -3 26 -7 3 -4 12 -8 19 -9 34 -8 86 -31 80 -37
-3 -4 -2 -7 3 -8 35 -3 115 -34 107 -42 -5 -6 0 -8 22 -7 3 0 19 -7 35 -15 16
-8 33 -16 37 -16 20 0 53 -12 53 -18 0 -4 26 -15 58 -25 31 -10 60 -23 63 -27
3 -5 32 -17 65 -26 32 -9 66 -22 74 -28 8 -7 42 -21 75 -31 33 -10 62 -20 65
-24 3 -3 41 -17 85 -30 44 -13 82 -28 85 -31 3 -4 28 -13 55 -20 28 -6 60 -18
72 -25 12 -8 39 -18 60 -23 21 -6 56 -15 78 -21 22 -6 46 -12 53 -12 6 -1 12
-5 12 -9 0 -6 38 -17 154 -44 10 -2 23 -8 30 -13 6 -5 46 -17 89 -27 42 -10
77 -22 77 -26 0 -5 10 -9 23 -9 12 0 43 -7 70 -15 26 -8 50 -14 52 -14 14 1
71 -14 80 -21 6 -5 37 -13 70 -20 33 -6 67 -13 75 -15 8 -2 26 -4 40 -4 20 -1
22 -3 10 -11 -12 -8 -10 -10 10 -11 22 0 55 -6 85 -13 6 -1 45 -8 87 -16 43
-7 75 -16 73 -21 -3 -4 3 -7 12 -7 10 0 29 -2 43 -5 24 -5 70 -14 115 -22 11
-2 30 -4 43 -4 13 -1 21 -5 18 -9 -2 -4 7 -9 22 -10 15 -1 50 -6 77 -11 28 -6
75 -13 105 -17 30 -4 58 -9 63 -10 4 -1 21 -2 38 -3 21 -1 28 -5 23 -13 -5 -8
0 -7 11 2 11 9 16 10 11 3 -5 -9 1 -13 21 -14 15 0 36 -2 45 -4 30 -6 97 -14
163 -21 36 -4 65 -10 65 -13 0 -4 8 -7 18 -7 9 -1 41 -4 70 -7 50 -7 99 -12
200 -22 26 -2 79 -7 117 -11 39 -4 78 -6 88 -6 9 0 15 -3 13 -7 -3 -4 1 -8 9
-8 8 0 11 5 8 11 -4 7 -1 7 8 -1 16 -13 150 -23 514 -39 218 -9 269 -12 275
-14 3 -1 10 -1 15 0 38 8 45 8 45 -3 0 -7 4 -6 10 3 5 8 10 10 10 4 0 -7 11
-11 24 -10 13 0 22 4 19 9 -2 4 0 7 6 7 5 0 11 -5 13 -11 3 -9 10 -9 27 1 18
9 22 9 16 0 -6 -9 -3 -9 13 -1 15 8 21 8 25 -2 3 -9 7 -9 19 1 11 8 18 9 22 3
5 -7 15 -7 31 -1 18 7 25 6 25 -3 0 -8 4 -7 10 3 5 8 10 11 10 5 0 -5 15 -10
34 -10 19 0 32 3 29 8 -2 4 0 7 6 7 5 0 11 -6 14 -12 3 -10 7 -10 20 1 12 9
17 10 17 2 0 -8 5 -9 19 -1 13 7 20 7 23 -1 2 -7 12 -7 31 0 15 6 27 7 27 2 0
-4 7 -8 15 -8 8 0 12 4 9 9 -3 4 -1 8 5 8 5 0 13 -5 16 -10 4 -7 13 -7 26 0
14 8 19 7 19 -2 0 -9 3 -9 8 -2 4 6 53 12 112 14 378 11 615 27 643 42 11 5
17 6 14 1 -3 -5 4 -10 16 -10 17 -2 19 0 7 7 -11 7 -2 10 30 11 25 0 56 2 70
4 14 1 58 5 98 9 41 3 90 8 110 10 20 3 68 8 107 11 38 4 74 10 80 13 12 8 24
10 90 17 28 3 59 7 70 9 11 2 53 7 93 11 39 4 72 11 72 15 0 6 96 22 200 35
58 7 106 19 112 29 5 7 8 6 8 -4 0 -10 3 -11 8 -4 4 7 25 15 47 18 22 4 67 11
99 17 33 6 67 11 77 12 10 1 16 4 14 7 -2 4 53 17 123 30 70 13 132 27 138 31
6 5 44 15 85 24 41 8 83 19 94 24 24 12 187 51 209 51 9 0 16 4 16 8 0 5 37
17 83 27 45 10 85 23 88 27 3 5 14 10 25 12 81 17 160 39 164 45 3 4 25 13 50
20 25 7 61 17 80 22 19 6 41 11 48 11 6 1 12 5 12 8 0 7 61 26 109 36 8 1 17
7 20 11 6 9 134 49 164 52 5 1 6 5 3 10 -3 5 10 11 30 14 20 3 54 15 77 26 23
11 71 29 106 41 35 11 73 27 85 35 11 8 32 16 46 19 35 6 60 17 60 25 0 4 6 8
13 9 20 2 115 38 129 49 7 6 37 19 66 29 28 10 52 22 52 26 0 3 17 12 38 18
40 12 84 32 92 41 3 3 21 11 40 18 19 8 67 29 106 47 39 19 77 34 84 34 8 0
10 3 7 7 -4 3 21 17 54 31 34 13 70 32 81 41 10 9 22 16 26 17 24 3 62 17 62
24 0 5 27 19 59 31 33 13 58 26 55 30 -2 4 12 13 31 19 19 6 41 17 48 23 14
14 65 39 87 43 8 2 19 9 25 16 5 7 30 23 55 36 25 12 63 33 85 45 43 24 49 27
66 27 5 0 8 4 4 9 -5 10 19 28 40 30 6 0 31 14 56 31 26 16 52 30 58 30 6 0
14 6 17 13 2 7 29 24 59 37 30 13 52 27 49 32 -3 4 6 10 20 14 13 3 32 14 42
25 9 10 21 16 25 13 5 -3 9 -1 9 3 0 5 18 17 40 27 22 10 40 21 40 26 0 5 16
17 35 26 19 9 35 20 35 25 0 5 6 9 14 9 7 0 19 7 26 15 7 8 16 13 20 10 5 -3
15 4 23 15 7 10 33 28 58 39 24 12 37 21 29 21 -8 0 8 12 37 27 28 15 50 30
48 34 -3 3 13 14 35 24 22 10 38 21 36 24 -2 3 18 17 45 30 27 14 46 27 44 30
-3 2 15 16 40 31 25 15 42 29 38 33 -3 4 0 7 9 7 8 0 23 9 33 20 10 11 21 17
25 15 4 -3 10 2 13 10 3 8 23 23 44 34 21 11 34 20 28 21 -5 0 6 10 25 21 19
12 39 28 43 35 4 8 13 14 20 14 7 0 26 13 43 28 18 15 45 38 60 52 16 14 38
32 50 40 56 39 106 80 99 80 -4 0 9 11 29 25 20 14 41 25 47 25 6 0 8 4 5 8
-3 5 14 20 37 35 22 15 37 27 32 27 -6 0 1 8 15 18 25 17 49 38 117 99 20 18
40 33 44 33 5 0 9 7 9 15 0 8 6 15 13 15 8 0 22 9 32 20 10 11 22 17 27 14 4
-3 7 -2 6 3 -3 7 109 123 118 123 4 0 80 71 178 167 46 45 86 79 90 76 3 -4 6
-2 6 4 0 14 40 58 51 56 5 -2 9 1 9 6 0 14 98 110 104 103 3 -3 6 0 6 7 0 8
36 49 80 94 43 44 76 85 73 90 -3 6 -1 7 5 3 7 -4 20 6 32 26 11 18 20 29 20
25 0 -5 12 6 27 23 46 55 82 88 89 81 4 -3 4 -1 1 5 -3 6 16 34 43 63 28 28
50 56 50 61 0 6 6 10 13 10 7 0 21 16 31 35 10 19 22 33 25 31 7 -4 32 20 30
30 0 3 9 15 20 27 47 49 91 102 91 109 0 5 16 24 35 43 20 19 35 37 35 40 -1
4 10 15 24 26 14 11 25 24 23 29 -1 4 6 16 15 27 9 10 27 29 40 43 24 27 53
68 59 85 2 6 16 21 31 33 16 13 26 28 23 32 -3 5 3 14 14 20 11 5 28 26 37 45
9 20 19 33 22 30 5 -4 19 15 38 53 4 8 18 25 30 38 13 12 24 30 24 37 0 8 11
22 25 31 14 9 23 21 20 25 -2 5 3 15 11 22 9 8 28 31 42 53 13 22 33 49 43 60
11 11 19 25 19 32 0 7 8 19 19 26 10 7 21 22 25 34 3 11 16 31 28 43 11 13 31
43 43 67 12 24 24 42 26 39 3 -2 14 12 24 32 11 21 30 48 42 61 13 14 21 28
18 32 -2 4 3 16 13 26 29 32 52 72 52 90 0 10 3 14 7 11 8 -9 53 69 53 92 0
11 3 13 8 4 5 -9 14 3 27 32 10 25 22 45 26 45 8 0 41 64 43 83 1 4 6 11 12
15 6 4 21 30 35 57 13 28 32 59 42 69 9 11 17 23 17 28 0 4 14 30 30 56 17 27
30 56 30 65 0 9 6 20 13 24 7 4 23 28 35 53 13 25 33 64 45 86 12 23 23 47 25
55 2 8 7 16 12 19 5 3 18 28 29 55 11 28 20 46 21 40 0 -5 6 4 14 20 23 52 46
100 55 115 5 8 15 30 21 47 7 20 17 30 24 26 6 -3 8 -3 4 1 -4 5 4 33 18 63
13 31 24 62 24 70 0 8 5 11 10 8 6 -3 10 -1 10 4 0 20 2 26 10 36 10 14 35 88
32 98 -1 5 2 6 7 3 5 -4 17 16 26 44 9 27 20 50 24 50 3 0 17 33 31 72 13 40
28 76 33 79 4 3 10 12 11 20 2 8 8 27 14 42 7 16 12 33 12 38 0 5 3 9 8 9 4 0
18 36 32 80 14 44 28 80 31 80 3 0 12 19 19 43 17 52 17 53 19 73 0 8 6 12 11
9 6 -3 10 -3 11 2 3 39 44 165 50 158 3 -3 14 29 24 69 10 41 22 73 25 71 4
-3 17 37 30 88 13 51 27 95 32 98 4 3 19 47 31 97 13 51 26 90 29 87 3 -3 9
11 14 32 4 21 8 40 9 43 1 3 5 24 10 48 4 23 10 40 13 37 6 -6 51 166 52 198
0 9 3 17 8 17 4 0 16 39 26 88 11 48 23 89 26 92 4 3 18 61 30 130 13 69 27
127 31 130 4 3 14 45 23 94 8 48 21 95 28 104 10 12 10 14 1 8 -7 -4 -13 -2
-13 3 0 6 4 11 8 11 5 0 14 33 20 73 6 39 14 81 16 93 2 12 7 45 11 75 4 30
10 56 13 59 4 3 8 10 9 15 3 22 12 83 18 125 3 25 8 54 10 65 2 11 4 35 4 53
1 18 5 31 9 28 4 -2 9 10 10 28 1 17 4 43 7 56 3 13 7 56 11 95 3 38 7 77 9
85 2 8 7 49 11 90 3 41 11 78 18 82 7 5 7 8 0 8 -6 0 -11 7 -11 15 0 8 4 12 9
9 4 -3 8 12 9 33 0 21 2 45 3 53 3 13 8 72 21 260 2 19 3 60 4 90 1 39 4 51
11 40 6 -9 10 -10 10 -3 0 6 -5 15 -10 18 -7 5 -8 11 -1 19 34 41 35 1596 0
1631 -5 5 -9 14 -9 20 0 5 5 3 10 -5 7 -12 9 -10 7 7 0 12 -4 20 -8 17 -4 -2
-6 9 -6 24 0 15 -3 61 -6 102 -4 41 -9 113 -12 160 -3 47 -8 94 -10 105 -2 11
-4 39 -4 63 -1 32 -4 41 -13 36 -10 -6 -10 -4 0 7 6 7 12 18 12 24 0 5 -5 3
-10 -5 -7 -11 -10 -1 -11 35 -1 28 -3 61 -5 75 -2 14 -5 43 -8 65 -2 22 -10
90 -17 152 -7 61 -16 110 -21 107 -4 -3 -8 12 -9 33 0 21 -2 47 -4 58 -2 11
-9 56 -15 100 -6 44 -14 87 -17 95 -9 23 -10 28 -28 135 -9 55 -18 107 -20
115 -2 8 -4 28 -4 43 -1 16 -5 26 -9 23 -4 -2 -16 46 -26 107 -11 62 -22 114
-26 117 -4 3 -17 58 -30 122 -12 65 -26 115 -31 112 -5 -3 -9 0 -9 5 0 6 6 11
13 11 9 0 9 2 0 8 -10 6 -46 136 -46 169 0 7 -3 10 -7 8 -6 -4 -49 162 -52
203 -1 6 -5 12 -9 12 -4 0 -15 35 -24 77 -10 43 -23 86 -30 98 -7 11 -17 36
-21 55 -4 19 -8 37 -9 40 -1 3 -5 22 -9 43 -5 21 -11 35 -14 32 -3 -3 -14 25
-24 62 -26 93 -26 96 -27 111 -1 7 -5 11 -10 8 -5 -3 -12 11 -17 32 -14 70
-23 92 -37 92 -7 0 -6 4 3 10 8 5 10 10 4 10 -6 0 -19 28 -29 63 -10 34 -23
67 -28 74 -5 7 -5 18 -1 24 4 7 3 9 -3 6 -6 -4 -18 19 -29 57 -10 36 -21 63
-25 61 -3 -3 -17 31 -30 75 -12 43 -26 77 -30 74 -4 -2 -11 10 -14 28 -4 18
-23 65 -41 105 -19 40 -34 79 -34 87 0 8 -6 21 -13 28 -8 7 -22 37 -31 66 -10
28 -21 52 -26 52 -4 0 -13 20 -20 45 -7 25 -17 48 -21 51 -5 3 -9 14 -9 25 0
10 -4 19 -9 19 -5 0 -15 17 -21 38 -7 20 -16 41 -21 47 -5 5 -9 17 -9 28 0 10
-4 16 -8 13 -5 -3 -17 19 -27 49 -10 30 -22 52 -27 49 -4 -3 -8 0 -8 6 0 6 -7
27 -16 48 -10 20 -18 43 -20 51 -1 8 -10 18 -18 23 -9 5 -16 18 -16 28 0 10
-4 22 -10 25 -5 3 -10 15 -10 26 0 11 -4 18 -9 14 -8 -4 -19 15 -26 45 -5 19
-32 66 -42 73 -6 4 -14 21 -18 37 -4 16 -12 33 -18 37 -13 8 -38 57 -43 81 -1
8 -9 21 -18 31 -8 9 -22 33 -31 54 -8 20 -19 37 -24 37 -8 0 -43 73 -45 93 -1
4 -6 11 -12 15 -6 4 -23 30 -37 58 -14 27 -33 56 -41 63 -9 8 -16 19 -16 26 0
6 -9 22 -20 35 -11 13 -20 28 -20 35 0 6 -6 17 -12 24 -7 6 -13 15 -13 19 0 4
-10 18 -22 31 -12 13 -21 27 -19 30 3 3 -2 15 -10 26 -8 10 -14 15 -14 9 0 -5
-12 15 -26 44 -13 28 -28 52 -33 52 -4 0 -16 18 -26 40 -10 21 -22 38 -27 37
-6 -1 -12 7 -14 18 -1 11 -8 21 -13 23 -6 2 -11 12 -11 22 0 11 -9 24 -20 30
-11 6 -20 17 -20 24 0 8 -11 24 -25 37 -13 13 -25 29 -25 35 0 6 -7 17 -15 24
-8 7 -12 16 -9 21 3 5 -2 12 -10 15 -8 3 -25 22 -38 42 -13 20 -31 48 -40 62
-10 14 -21 32 -25 40 -4 8 -18 23 -30 34 -13 10 -22 21 -19 24 3 2 -7 19 -22
36 -43 51 -76 95 -94 129 -10 17 -18 28 -18 23 0 -9 -48 51 -82 102 -9 14 -24
30 -32 34 -9 5 -16 15 -16 23 0 8 -8 20 -18 27 -9 7 -25 24 -34 38 -8 14 -25
36 -37 50 -12 14 -33 40 -49 59 -15 18 -39 46 -53 62 -15 15 -25 30 -23 32 2
2 -11 18 -28 35 -39 37 -58 59 -58 67 0 4 -13 18 -30 32 -16 13 -30 29 -30 34
0 5 -22 30 -50 56 -27 26 -47 49 -45 51 8 8 -17 32 -26 26 -5 -3 -9 -1 -9 5 0
5 -16 26 -37 46 -20 19 -33 35 -30 35 4 0 -2 9 -13 20 -11 11 -24 20 -30 20
-5 0 -10 5 -10 10 0 6 -26 37 -57 69 -32 33 -75 78 -95 100 -20 23 -42 41 -47
41 -6 0 -11 4 -11 8 0 13 -50 69 -50 57 -1 -5 -7 2 -15 17 -8 15 -24 30 -35
33 -11 4 -18 10 -15 15 3 5 -10 20 -29 32 -19 13 -41 33 -47 45 -7 12 -15 20
-19 18 -4 -2 -13 7 -20 20 -7 14 -17 25 -21 25 -4 0 -37 29 -74 65 -36 36 -70
65 -76 65 -6 0 -7 5 -4 10 3 6 2 10 -3 10 -5 0 -30 20 -56 45 -27 25 -52 45
-58 45 -5 0 -6 5 -3 10 3 6 -2 13 -12 17 -10 4 -36 24 -58 45 -21 21 -43 38
-48 38 -4 0 -5 5 -2 10 3 6 0 10 -7 10 -12 0 -69 48 -138 116 -14 14 -29 22
-32 19 -3 -3 -16 8 -28 25 -12 17 -24 29 -27 26 -3 -2 -17 7 -32 22 -16 15
-45 41 -66 57 -21 17 -50 40 -64 52 -47 41 -50 43 -60 43 -6 0 -15 8 -20 19
-6 10 -24 24 -40 31 -17 7 -28 16 -25 21 3 5 -5 13 -18 18 -13 5 -39 24 -58
41 -19 17 -47 36 -62 42 -16 5 -26 14 -23 18 4 6 -23 23 -33 20 -7 -2 -29 26
-25 33 4 6 -13 11 -20 5 -1 -2 -13 7 -27 20 -13 12 -27 22 -31 22 -5 0 -19 10
-33 23 -37 34 -53 46 -91 68 -19 12 -35 24 -35 28 0 3 -13 12 -29 19 -16 7
-41 24 -55 37 -15 14 -33 25 -41 25 -8 0 -20 8 -27 18 -7 9 -30 26 -51 37 -21
11 -45 28 -54 38 -9 9 -21 17 -28 17 -6 0 -21 9 -33 20 -12 11 -32 25 -44 30
-26 11 -60 32 -68 41 -3 3 -20 14 -37 24 -18 11 -33 22 -33 26 0 4 -25 17 -55
30 -30 12 -52 25 -50 29 3 4 -16 16 -40 26 -25 10 -45 21 -45 25 0 4 -22 17
-50 30 -28 13 -47 27 -43 33 3 6 3 8 -2 4 -4 -4 -21 2 -36 13 -16 11 -29 17
-29 13 0 -4 -10 1 -22 12 -30 26 -88 57 -88 48 0 -4 -9 2 -20 13 -10 12 -35
26 -55 33 -19 6 -33 16 -29 21 3 5 2 8 -3 7 -4 -1 -26 7 -48 19 -122 64 -161
82 -172 83 -7 0 -13 4 -13 9 0 5 -20 17 -45 26 -24 10 -42 21 -39 26 3 5 -1 9
-8 9 -19 0 -118 43 -118 51 0 4 -22 15 -50 24 -27 9 -50 21 -50 26 0 5 -5 9
-11 9 -6 0 -45 16 -87 36 -43 20 -78 36 -80 35 -1 -1 -24 9 -50 22 -72 37
-121 57 -138 57 -8 0 -13 4 -10 8 3 5 -21 17 -52 27 -31 11 -60 23 -63 28 -3
4 -12 9 -20 11 -8 1 -25 8 -39 16 -14 7 -26 13 -27 12 -8 -5 -63 12 -63 19 0
4 -27 16 -59 25 -33 10 -58 21 -55 25 2 4 -18 12 -44 20 -26 7 -49 13 -52 14
-3 1 -20 6 -37 10 -18 4 -31 11 -28 14 2 4 -33 18 -78 31 -45 13 -87 27 -92
31 -15 11 -98 39 -118 39 -10 0 -16 4 -13 8 3 5 -35 19 -84 32 -50 12 -90 26
-90 29 0 7 -134 44 -146 41 -4 -1 -10 3 -13 8 -5 9 -158 53 -188 55 -7 0 -13
4 -13 8 0 4 -35 15 -77 24 -43 9 -82 21 -88 25 -5 5 -23 11 -40 14 -73 14
-122 25 -145 34 -14 5 -31 7 -37 5 -7 -3 -13 0 -13 5 0 5 -15 13 -32 16 -18 3
-44 8 -58 11 -14 3 -38 8 -55 11 -16 3 -34 9 -40 13 -5 5 -28 11 -50 14 -22 3
-61 10 -86 16 -25 6 -65 13 -89 16 -24 3 -46 9 -50 13 -3 4 -9 8 -15 9 -9 1
-72 11 -120 19 -11 1 -39 6 -63 9 -24 4 -51 8 -60 10 -9 2 -27 4 -40 4 -13 1
-20 5 -17 11 4 6 3 10 -2 8 -4 -1 -30 2 -58 6 -51 7 -81 11 -170 22 -27 4 -52
10 -55 14 -3 4 -37 10 -76 14 -39 4 -80 8 -90 10 -11 2 -53 7 -94 11 -41 5
-84 9 -95 11 -11 1 -39 3 -63 3 -26 1 -41 5 -37 11 4 6 -14 10 -47 11 -29 0
-60 2 -69 4 -19 3 -128 12 -264 21 -55 3 -104 10 -109 15 -5 4 -17 4 -27 -1
-10 -6 -20 -6 -23 -2 -3 5 -29 10 -58 11 -29 1 -80 4 -113 7 -70 5 -1062 13
-1067 9z"/>
</g>
</svg>
